<svg height="512pt" viewBox="-108 0 511 512" width="512pt" xmlns="http://www.w3.org/2000/svg"><path d="m281.332031 403.054688c3.355469-4.894532 5.152344-10.6875 5.152344-16.621094v-101.042969c0-11.214844-4.054687-22.050781-11.414063-30.511719l-19.621093-22.542968v-143.335938c0-14.910156-12.085938-27-27-27-14.910157 0-27 12.089844-27 27v100.25c0-14.910156-12.085938-27-27-27-14.910157 0-27 12.089844-27 27 0-14.910156-12.085938-27-27-27-6.441407 0-12.355469 2.261719-17 6.027344v94.40625l2.855469-.351563-21.03125 26.613281c-6.976563 8.828126-10.773438 19.75-10.773438 31.003907v34.121093c0 13.292969 5.292969 26.039063 14.707031 35.421876l58.707031 58.507812v54h102.5625v-54zm0 0" fill="#ffbf8f"/><path d="m282.613281 248.316406-17.164062-19.722656v-139.59375c0-20.402344-16.597657-37-37-37-20.402344 0-37 16.597656-37 37v67.402344c-5.09375-2.644532-10.871094-4.152344-17-4.152344-10.640625 0-20.242188 4.523438-27 11.742188-6.753907-7.21875-16.355469-11.742188-27-11.742188-6.125 0-11.90625 1.507812-17 4.152344v-119.402344c0-20.402344-16.597657-37-37-37-20.402344 0-37 16.597656-37 37v225.46875l-16.023438 20.273438c-8.335937 10.550781-12.925781 23.765624-12.925781 37.207031v34.121093c0 15.832032 6.433594 31.324219 17.648438 42.503907l55.765624 55.578125v49.847656c0 5.523438 4.476563 10 10 10 5.519532 0 10-4.476562 10-10v-54c0-2.65625-1.058593-5.207031-2.941406-7.082031l-58.707031-58.511719c-7.476563-7.449219-11.765625-17.777344-11.765625-28.335938v-34.121093c0-8.960938 3.0625-17.769531 8.617188-24.804688l22.933593-29.015625h93.292969c7.867188 0 14.269531 6.398438 14.269531 14.269532 0 7.867187-6.398437 14.269531-14.269531 14.269531h-73.347656c-3.714844 0-7.125 2.058593-8.851563 5.347656-1.730469 3.289063-1.492187 7.265625.617188 10.324219l10.148437 14.738281v17.65625c0 5.523437 4.480469 10 10 10 5.523438 0 10-4.476563 10-10v-20.765625c0-2.027344-.613281-4.003906-1.761718-5.671875l-1.121094-1.628906h54.316406c9.308594 0 17.757812-3.738281 23.941406-9.785157 1.707032.238282 3.429688.367188 5.164063.367188 20.402343 0 37-16.597656 37-37v-179.25c0-9.375 7.625-17 17-17 9.371093 0 17 7.625 17 17v143.335938c0 2.414062.871093 4.746093 2.453125 6.566406l19.621094 22.542968c5.777343 6.640626 8.960937 15.144532 8.960937 23.945313v101.042969c0 3.929687-1.175781 7.722656-3.398437 10.960937l-30.855469 44.945313c-1.144531 1.664062-1.757813 3.640625-1.757813 5.660156v54c0 5.523438 4.476563 10 10 10 5.523438 0 10-4.476562 10-10v-50.898438l29.105469-42.390624c4.519531-6.585938 6.90625-14.289063 6.90625-22.277344v-101.042969c0-13.628906-4.925781-26.792969-13.871094-37.074219zm-198.699219 134.683594c-5.523437 0-10-4.476562-10-10v-.167969c0-5.523437 4.476563-10 10-10 5.519532 0 10 4.476563 10 10v.167969c0 5.523438-4.480468 10-10 10zm36.535157-210.75c9.375 0 17 7.628906 17 17v56.878906h-34v-56.878906c0-9.371094 7.625-17 17-17zm-71 73.878906v-209.128906c0-9.375 7.625-17 17-17s17 7.625 17 17v209.128906zm142 22.121094c0 7.667969-5.105469 14.160156-12.09375 16.269531.164062-1.351562.257812-2.726562.257812-4.125 0-14.632812-9.226562-27.152343-22.164062-32.054687v-59.089844c0-9.375 7.625-17 17-17s17 7.625 17 17zm0 0"/></svg>